<?xml version="1.0" encoding="utf-8"?>
<!-- Generator: Adobe Illustrator 17.0.1, SVG Export Plug-In . SVG Version: 6.00 Build 0)  -->
<!DOCTYPE svg PUBLIC "-//W3C//DTD SVG 1.1//EN" "http://www.w3.org/Graphics/SVG/1.1/DTD/svg11.dtd">
<svg version="1.1" id="Layer_1" xmlns="http://www.w3.org/2000/svg" xmlns:xlink="http://www.w3.org/1999/xlink" x="0px" y="0px"
	 width="34px" height="34px" viewBox="0 0 34 34" enable-background="new 0 0 34 34" xml:space="preserve">
<g>
	<g>
		<g>
			<path fill="#FFFFFF" d="M24.793,21.782l0.199-0.051h0.16c0.218,0,0.661,0,2.97,1.221l-0.789-2.225l0.691-0.473
				c2.16-1.463,3.346-3.426,3.346-5.525c0-4.217-4.787-7.647-10.675-7.647c-3.201,0-6.071,1.022-8.029,2.623
				c-0.483-0.043-0.979-0.072-1.483-0.072c-0.511,0-1.015,0.031-1.515,0.076c2.243-2.871,6.338-4.805,11.026-4.805
				c7.087,0,12.853,4.406,12.853,9.824c0,2.557-1.306,5.006-3.613,6.824l2.19,6.154l-2.554-1.467
				c-1.669-0.957-3.715-2.047-4.4-2.303c-0.954,0.273-1.948,0.445-2.961,0.537c0.583-0.742,1.034-1.543,1.347-2.389
				C23.975,22.001,24.39,21.905,24.793,21.782z"/>
			<path fill="#FFFFFF" d="M3.938,25.315l-1.345,3.779c0,0,4.148-2.387,4.562-2.256c1.244,0.371,2.602,0.578,4.025,0.578
				c5.927,0,10.731-3.566,10.731-7.965c0-4.395-4.805-7.963-10.731-7.963c-5.928,0-10.729,3.568-10.729,7.963
				C0.452,21.776,1.8,23.86,3.938,25.315z"/>
		</g>
	</g>
</g>
</svg>
