<?xml version="1.0" encoding="utf-8"?>
<!-- Generator: Adobe Illustrator 17.0.1, SVG Export Plug-In . SVG Version: 6.00 Build 0)  -->
<!DOCTYPE svg PUBLIC "-//W3C//DTD SVG 1.1//EN" "http://www.w3.org/Graphics/SVG/1.1/DTD/svg11.dtd">
<svg version="1.1" id="Layer_1" xmlns="http://www.w3.org/2000/svg" xmlns:xlink="http://www.w3.org/1999/xlink" x="0px" y="0px"
	 width="125px" height="40px" viewBox="0 0 125 40" enable-background="new 0 0 125 40" xml:space="preserve">
<g>
	<path fill="#666666" d="M45.578,22.041c0.676-0.491,1.029-1.302,1.029-2.371c0-1.484-0.789-2.628-2.232-3.219
		c-0.676-0.271-1.46-0.29-2.206-0.29H39.31v12.804h3.3c1.261,0,2.389-0.066,3.409-0.933c0.811-0.698,1.29-1.836,1.29-3.047
		C47.309,23.625,46.658,22.535,45.578,22.041 M44.535,25.072c0,0.619-0.226,1.33-1.961,1.33h-0.548v-2.853h0.548
		C43.877,23.549,44.535,24.06,44.535,25.072 M42.027,21.16v-2.44h0.164c1.536,0,1.737,0.628,1.737,1.178
		c0,0.541-0.191,1.262-1.807,1.262H42.027z"/>
	<path fill="#666666" d="M54.042,23.463c0,2.369-0.497,3.255-1.852,3.255c-1.345,0-1.75-0.728-1.75-3.116v-4.403h-2.578v5.629
		c0,2.785,1.397,4.385,3.837,4.385c0.949,0,1.701-0.3,2.329-0.935v0.688h2.551v-9.766h-2.538V23.463z"/>
	<rect x="57.509" y="19.199" fill="#666666" width="2.508" height="9.766"/>
	<rect x="57.509" y="16.161" fill="#666666" width="2.508" height="2.458"/>
	<rect x="60.986" y="16.157" fill="#666666" width="2.514" height="12.808"/>
	<path fill="#666666" d="M71.843,19.756c-0.77-0.542-1.629-0.785-2.73-0.785c-1.302,0-2.463,0.446-3.364,1.292
		c-1.056,0.973-1.67,2.354-1.67,3.795c0,1.567,0.653,2.988,1.834,4.005c0.861,0.751,1.964,1.15,3.2,1.15
		c1.025,0,1.922-0.273,2.73-0.826v0.581h2.528v-12.81h-2.528V19.756z M69.374,26.665c-1.534,0-2.643-1.084-2.643-2.573
		c0-1.427,1.14-2.592,2.539-2.592c1.421,0,2.489,1.13,2.489,2.625C71.76,25.552,70.711,26.665,69.374,26.665"/>
	<path fill="#666666" d="M81.676,18.772c1.171,0,2.101,0.456,2.764,1.356l0.056,0.08h3.368l-0.131-0.273
		c-1.261-2.719-3.227-4.04-6.022-4.04c-1.754,0-3.27,0.623-4.523,1.857c-1.308,1.303-1.998,2.935-1.998,4.713
		c0,1.756,0.575,3.321,1.659,4.529c1.294,1.46,2.923,2.196,4.845,2.196c2.768,0,4.771-1.321,5.958-3.919l0.121-0.271h-3.364
		l-0.053,0.08c-0.579,0.807-1.53,1.253-2.68,1.253c-2.005,0-3.592-1.686-3.592-3.837c0-0.986,0.405-1.964,1.103-2.681
		C79.842,19.142,80.729,18.772,81.676,18.772"/>
	<rect x="88.532" y="16.141" fill="#666666" width="2.51" height="12.804"/>
	<path fill="#666666" d="M96.64,18.901c-1.347,0-2.635,0.581-3.633,1.631c-0.904,0.959-1.384,2.183-1.384,3.545
		c0,1.323,0.53,2.632,1.454,3.588c0.976,1.013,2.206,1.526,3.648,1.526c2.171,0,3.894-1.222,4.722-3.354l0.103-0.257h-2.744
		l-0.056,0.092c-0.415,0.684-1.171,1.082-2.076,1.082c-1.304,0-2.183-0.672-2.389-1.809h7.494v-0.187
		c0-0.078,0.002-0.153,0.008-0.228c0.004-0.082,0.006-0.164,0.006-0.249c0-1.329-0.296-2.342-0.928-3.185
		C99.853,19.7,98.31,18.901,96.64,18.901 M96.64,21.292c1.156,0,1.963,0.53,2.341,1.544h-4.576
		C94.773,21.902,95.64,21.292,96.64,21.292"/>
	<path fill="#666666" d="M110.154,19.963c-0.645-0.682-1.571-1.027-2.764-1.027c-1.485,0-2.641,0.481-3.611,1.508
		c-0.908,0.937-1.403,2.208-1.403,3.576c0,2.927,2.183,5.135,5.065,5.135c1.269,0,2.148-0.306,2.734-0.956v0.745h2.497V19.18h-2.518
		V19.963z M107.511,26.575c-1.413,0-2.518-1.133-2.518-2.589c0-1.382,1.113-2.502,2.487-2.502c1.329,0,2.45,1.191,2.45,2.607
		C109.93,25.414,108.803,26.575,107.511,26.575"/>
	<path fill="#666666" d="M121.45,20.61c-0.707-1.074-1.775-1.622-3.186-1.622c-0.951,0-1.703,0.3-2.325,0.935V19.18h-2.51v9.766
		h2.493v-4.208c0-2.362,0.505-3.239,1.855-3.239c1.327,0,1.752,0.754,1.752,3.099v4.348h2.567v-5.153
		C122.095,22.561,122.046,21.544,121.45,20.61"/>
	<path fill="#231F20" d="M39.353,36.192v-5.046h1.62c1.54,0,2.538,1.045,2.538,2.541c0,0.865-0.362,1.59-1.013,2.058
		c-0.538,0.392-1.058,0.446-1.725,0.446H39.353z M40.949,35.517c1.134,0,1.822-0.707,1.822-1.824c0-1.142-0.707-1.855-1.959-1.855
		h-0.75v3.68H40.949z"/>
	<path fill="#231F20" d="M45.486,31.146v3.211c0,0.827,0.188,1.219,0.898,1.219c0.675,0,0.859-0.392,0.859-1.219v-3.211h0.731v3.202
		c0,0.522-0.029,0.93-0.246,1.263c-0.306,0.462-0.74,0.681-1.331,0.681c-0.628,0-1.062-0.2-1.392-0.672
		c-0.253-0.377-0.253-0.783-0.253-1.272v-3.202H45.486z"/>
	<path fill="#231F20" d="M49.82,34.738c0.021,0.534,0.341,0.859,0.791,0.859c0.501,0,0.828-0.333,0.828-0.859
		c0-0.559-0.304-0.711-0.858-0.881c-0.361-0.097-0.705-0.156-1.015-0.579c-0.17-0.228-0.257-0.483-0.257-0.776
		c0-0.867,0.561-1.448,1.395-1.448c0.764,0,1.275,0.496,1.321,1.341h-0.682c-0.02-0.403-0.294-0.676-0.663-0.676
		c-0.409,0-0.684,0.314-0.684,0.743c0,0.154,0.053,0.287,0.146,0.402c0.212,0.249,0.571,0.263,0.986,0.405
		c0.661,0.249,1.013,0.731,1.013,1.401c0,0.961-0.596,1.623-1.514,1.623c-0.857,0-1.453-0.611-1.467-1.554H49.82z"/>
	<polygon fill="#231F20" points="53.983,36.192 53.983,31.826 53.038,31.826 53.038,31.146 55.655,31.146 55.655,31.826 
		54.714,31.826 54.714,36.192 	"/>
	<path fill="#231F20" d="M61.746,36.292c-0.75,0-1.394-0.291-1.908-0.864c-0.427-0.477-0.649-1.097-0.649-1.789
		c0-0.702,0.265-1.343,0.784-1.861c0.483-0.477,1.085-0.731,1.785-0.731c1.033,0,1.852,0.511,2.243,1.405h-0.856
		c-0.322-0.446-0.803-0.674-1.399-0.674c-0.474,0-0.916,0.185-1.249,0.528c-0.351,0.359-0.55,0.859-0.55,1.339
		c0,0.531,0.183,1.013,0.509,1.358c0.347,0.359,0.824,0.567,1.29,0.567c0.583,0,1.06-0.23,1.36-0.643h0.895
		C63.558,35.81,62.767,36.292,61.746,36.292z"/>
	<path fill="#231F20" d="M65.928,31.777c0.483-0.476,1.087-0.731,1.783-0.731c0.707,0,1.314,0.249,1.809,0.738
		c0.514,0.506,0.776,1.135,0.776,1.854c0,0.723-0.23,1.323-0.667,1.803c-0.518,0.559-1.167,0.851-1.926,0.851
		c-0.752,0-1.401-0.291-1.908-0.864c-0.429-0.477-0.655-1.097-0.655-1.789C65.141,32.937,65.412,32.29,65.928,31.777 M66.412,35.003
		c0.345,0.359,0.824,0.567,1.292,0.567c1.041,0,1.836-0.836,1.836-1.941c0-0.46-0.166-0.893-0.497-1.247
		c-0.372-0.407-0.799-0.604-1.339-0.604c-0.477,0-0.916,0.185-1.249,0.528c-0.355,0.359-0.552,0.859-0.552,1.341
		C65.903,34.179,66.086,34.658,66.412,35.003"/>
	<polygon fill="#231F20" points="71.568,36.192 71.568,31.146 72.327,31.146 74.802,34.968 74.765,31.146 75.488,31.146 
		75.488,36.192 74.788,36.192 72.257,32.259 72.303,36.192 	"/>
	<polygon fill="#231F20" points="77.55,36.192 77.55,31.826 76.607,31.826 76.607,31.146 79.224,31.146 79.224,31.826 
		78.279,31.826 78.279,36.192 	"/>
	<path fill="#231F20" d="M80.335,36.192v-5.046h1.452c1.224,0,1.871,0.589,1.871,1.633c0,0.809-0.579,1.434-1.442,1.473l1.442,1.939
		H82.74l-1.678-2.343v2.343H80.335z M81.44,33.767c1,0,1.499-0.323,1.499-0.994c0-0.674-0.442-0.947-1.331-0.947h-0.546v1.941H81.44
		z"/>
	<path fill="#231F20" d="M85.527,31.777c0.481-0.476,1.082-0.731,1.775-0.731c0.709,0,1.314,0.249,1.809,0.738
		c0.513,0.506,0.776,1.135,0.776,1.854c0,0.723-0.226,1.323-0.663,1.803c-0.52,0.559-1.171,0.851-1.926,0.851
		c-0.752,0-1.399-0.291-1.912-0.864c-0.425-0.477-0.653-1.097-0.653-1.789C84.734,32.937,85.003,32.29,85.527,31.777 M86.008,35.003
		c0.345,0.359,0.817,0.567,1.29,0.567c1.039,0,1.836-0.836,1.836-1.941c0-0.46-0.168-0.893-0.497-1.247
		c-0.378-0.407-0.801-0.604-1.339-0.604c-0.479,0-0.916,0.185-1.251,0.528c-0.355,0.359-0.554,0.859-0.554,1.341
		C85.494,34.179,85.675,34.658,86.008,35.003"/>
	<polygon fill="#231F20" points="91.165,36.192 91.165,31.146 91.894,31.146 91.894,35.497 93.549,35.497 93.549,36.192 	"/>
	<path fill="#231F20" d="M97.791,34.738c0.023,0.534,0.343,0.859,0.789,0.859c0.509,0,0.832-0.333,0.832-0.859
		c0-0.559-0.306-0.711-0.859-0.881c-0.359-0.097-0.702-0.156-1.017-0.579c-0.168-0.228-0.249-0.483-0.249-0.776
		c0-0.867,0.557-1.448,1.39-1.448c0.766,0,1.277,0.496,1.327,1.341h-0.678c-0.029-0.403-0.306-0.676-0.674-0.676
		c-0.407,0-0.678,0.314-0.678,0.743c0,0.154,0.051,0.287,0.146,0.402c0.207,0.249,0.573,0.263,0.982,0.405
		c0.661,0.249,1.012,0.731,1.012,1.401c0,0.961-0.594,1.623-1.516,1.623c-0.854,0-1.448-0.611-1.458-1.554H97.791z"/>
	<polygon fill="#231F20" points="103.058,36.192 102.333,36.192 102.333,34.331 100.783,31.146 101.598,31.146 102.705,33.574 
		103.818,31.146 104.625,31.146 103.058,34.377 	"/>
	<path fill="#231F20" d="M105.905,34.738c0.019,0.534,0.339,0.859,0.784,0.859c0.501,0,0.83-0.333,0.83-0.859
		c0-0.559-0.306-0.711-0.861-0.881c-0.361-0.097-0.7-0.156-1.013-0.579c-0.17-0.228-0.257-0.483-0.257-0.776
		c0-0.867,0.565-1.448,1.397-1.448c0.764,0,1.278,0.496,1.327,1.341h-0.684c-0.021-0.403-0.3-0.676-0.668-0.676
		c-0.407,0-0.68,0.314-0.68,0.743c0,0.154,0.047,0.287,0.144,0.402c0.212,0.249,0.571,0.263,0.986,0.405
		c0.659,0.249,1.015,0.731,1.015,1.401c0,0.961-0.6,1.623-1.518,1.623c-0.854,0-1.452-0.611-1.468-1.554H105.905z"/>
	<polygon fill="#231F20" points="110.062,36.192 110.062,31.826 109.117,31.826 109.117,31.146 111.738,31.146 111.738,31.826 
		110.791,31.826 110.791,36.192 	"/>
	<polygon fill="#231F20" points="112.845,36.192 112.845,31.146 115.465,31.146 115.465,31.822 113.574,31.822 113.574,33.325 
		115.465,33.325 115.465,33.988 113.574,33.988 113.574,35.497 115.465,35.497 115.465,36.192 	"/>
	<polygon fill="#231F20" points="116.975,36.192 116.975,31.146 118.064,31.146 119.524,35.05 120.986,31.146 122.06,31.146 
		122.06,36.192 121.37,36.192 121.419,31.813 119.777,36.192 119.261,36.192 117.628,31.813 117.678,36.192 	"/>
	<path fill="#666666" d="M0.078,35.344C-0.374,37.895,1.187,40,3.516,40h20.882c1.734,0,3.174-1.253,3.478-2.898v-0.004
		l3.619-20.702c0.01-0.035,0.016-0.068,0.016-0.1l0.006-0.009v-0.002c0.035-0.203,0.058-0.409,0.053-0.628
		c0.006-1.953-1.579-3.535-3.535-3.535H13.245l-1.232,7.077h11.75L21.38,32.925H7.638L13.385,0H6.25
		C6.25,0,0.524,32.795,0.078,35.344"/>
	<polygon fill="#990000" points="11.69,21.113 21.427,21.113 19.706,31.01 9.965,30.971 	"/>
	<path fill="#666666" d="M122.697,19.182v0.195h-0.345v0.916h-0.263v-0.916h-0.343v-0.195H122.697z M123.282,19.182l0.29,0.741
		l0.275-0.741h0.345v1.111h-0.232v-0.875l-0.327,0.875h-0.123l-0.339-0.875v0.875h-0.236v-1.111H123.282z"/>
</g>
</svg>
